<mxfile host="app.diagrams.net" modified="2021-03-08T17:43:43.395Z" agent="5.0 (Macintosh; Intel Mac OS X 11_1_0) AppleWebKit/537.36 (KHTML, like Gecko) Chrome/88.0.4324.192 Safari/537.36" etag="pvlruyRR0aUmxA9Bl8L4" version="14.4.4" type="github">
  <diagram id="7ptF0DMkgPMZiPhxQQ7P" name="Page-1">
    <mxGraphModel dx="904" dy="559" grid="1" gridSize="10" guides="1" tooltips="1" connect="1" arrows="1" fold="1" page="1" pageScale="1" pageWidth="850" pageHeight="1100" math="0" shadow="0">
      <root>
        <mxCell id="0" />
        <mxCell id="1" parent="0" />
        <mxCell id="iAsOBPui76-qwP70mXhi-1" value="RunModel.py" style="rounded=1;whiteSpace=wrap;html=1;" parent="1" vertex="1">
          <mxGeometry x="205" y="80" width="120" height="60" as="geometry" />
        </mxCell>
        <mxCell id="iAsOBPui76-qwP70mXhi-2" value="BuilderUtils.Builder" style="rounded=1;whiteSpace=wrap;html=1;" parent="1" vertex="1">
          <mxGeometry x="205" y="150" width="120" height="60" as="geometry" />
        </mxCell>
        <mxCell id="iAsOBPui76-qwP70mXhi-3" value="BuilderUtils.add_plotting&lt;br&gt;BuilderPlot Class in BuilderPlotUtils.py&amp;nbsp;" style="rounded=1;whiteSpace=wrap;html=1;" parent="1" vertex="1">
          <mxGeometry x="160" y="220" width="240" height="60" as="geometry" />
        </mxCell>
        <mxCell id="iAsOBPui76-qwP70mXhi-4" value="Data.PrepData&lt;br&gt;DataPrep Class in DataUtils.py" style="rounded=1;whiteSpace=wrap;html=1;" parent="1" vertex="1">
          <mxGeometry x="175" y="300" width="200" height="50" as="geometry" />
        </mxCell>
        <mxCell id="iAsOBPui76-qwP70mXhi-5" value="Data.AnalyzeData&lt;br&gt;DataAnalysis Class in DataUtils.py" style="rounded=1;whiteSpace=wrap;html=1;" parent="1" vertex="1">
          <mxGeometry x="160" y="370" width="230" height="60" as="geometry" />
        </mxCell>
        <mxCell id="iAsOBPui76-qwP70mXhi-6" value="Data.ModelData&lt;br&gt;Model Class in ModelUtils.py" style="rounded=1;whiteSpace=wrap;html=1;" parent="1" vertex="1">
          <mxGeometry x="180" y="450" width="190" height="40" as="geometry" />
        </mxCell>
        <mxCell id="iAsOBPui76-qwP70mXhi-7" value="PlotUtils.py&lt;br&gt;create_metric_table&lt;br&gt;plot_prediction" style="rounded=1;whiteSpace=wrap;html=1;" parent="1" vertex="1">
          <mxGeometry x="215" y="510" width="120" height="60" as="geometry" />
        </mxCell>
        <mxCell id="iAsOBPui76-qwP70mXhi-8" value="BuilderUtils.py&lt;br&gt;buildData&lt;br&gt;ForecastData" style="rounded=1;whiteSpace=wrap;html=1;" parent="1" vertex="1">
          <mxGeometry x="215" y="580" width="120" height="60" as="geometry" />
        </mxCell>
        <mxCell id="iAsOBPui76-qwP70mXhi-9" value="plot_data_dict_metrics&lt;br&gt;plot_forecast" style="rounded=1;whiteSpace=wrap;html=1;" parent="1" vertex="1">
          <mxGeometry x="215" y="700" width="120" height="60" as="geometry" />
        </mxCell>
        <mxCell id="8_1-14mWKLSAez9oSBJj-1" value="Contains implementation of model run from start to finish ... &lt;br&gt;this is where you can really customize" style="text;html=1;align=center;verticalAlign=middle;resizable=0;points=[];autosize=1;" vertex="1" parent="1">
          <mxGeometry x="345" y="95" width="330" height="30" as="geometry" />
        </mxCell>
        <mxCell id="8_1-14mWKLSAez9oSBJj-2" value="Initiates instance of Builder class&lt;br&gt;using target variables, features, and period frequency" style="text;html=1;align=center;verticalAlign=middle;resizable=0;points=[];autosize=1;" vertex="1" parent="1">
          <mxGeometry x="460" y="170" width="300" height="30" as="geometry" />
        </mxCell>
        <mxCell id="8_1-14mWKLSAez9oSBJj-3" value="Instantiates BuilderPlot class which will be&lt;br&gt;used for plotting later&amp;nbsp;" style="text;html=1;align=center;verticalAlign=middle;resizable=0;points=[];autosize=1;" vertex="1" parent="1">
          <mxGeometry x="450" y="225" width="240" height="30" as="geometry" />
        </mxCell>
        <mxCell id="8_1-14mWKLSAez9oSBJj-4" value="Instantiates DataPrep class which goes through entire process&lt;br&gt;of gathering, imputing, validating, preparing, and transforming data etc&amp;nbsp;" style="text;html=1;align=center;verticalAlign=middle;resizable=0;points=[];autosize=1;" vertex="1" parent="1">
          <mxGeometry x="395" y="295" width="390" height="30" as="geometry" />
        </mxCell>
      </root>
    </mxGraphModel>
  </diagram>
</mxfile>
